<svg width="30" height="30" viewBox="0 0 30 30" fill="none" xmlns="http://www.w3.org/2000/svg">
<g clip-path="url(#clip0_1_412)">
<path d="M15 0.9375C25.7812 0.9375 28.125 8.10938 28.125 12.1875C28.125 15.7969 27.6562 17.3438 27.6562 17.3438H2.34375C2.34375 17.3438 1.875 15.7969 1.875 12.1875C1.875 8.10938 4.21875 0.9375 15 0.9375Z" fill="#DBB471"/>
<path d="M26.812 15.4687C26.812 15.4687 26.437 13.9218 26.2495 10.6874C26.0152 7.17178 21.1402 9.98428 14.9995 9.98428C8.85892 9.98428 3.98392 7.17178 3.74955 10.6874C3.56205 13.9218 3.18705 15.4687 3.18705 15.4687C0.140173 15.4687 0.140173 20.4374 3.37455 20.4374C3.37455 25.7812 10.0777 29.0624 14.9995 29.0624C19.9214 29.0624 26.6245 25.7812 26.6245 20.4374C29.8589 20.4374 29.8589 15.4687 26.812 15.4687Z" fill="#FED0AC"/>
<path d="M20.8594 19.6875C22.5421 19.6875 23.9062 18.3234 23.9062 16.6406C23.9062 14.9579 22.5421 13.5938 20.8594 13.5938C19.1766 13.5938 17.8125 14.9579 17.8125 16.6406C17.8125 18.3234 19.1766 19.6875 20.8594 19.6875Z" fill="white"/>
<path d="M20.8594 18.75C22.0244 18.75 22.9688 17.8056 22.9688 16.6406C22.9688 15.4756 22.0244 14.5312 20.8594 14.5312C19.6944 14.5312 18.75 15.4756 18.75 16.6406C18.75 17.8056 19.6944 18.75 20.8594 18.75Z" fill="#664E27"/>
<path d="M20.8594 17.3438C21.2477 17.3438 21.5625 17.029 21.5625 16.6406C21.5625 16.2523 21.2477 15.9375 20.8594 15.9375C20.471 15.9375 20.1562 16.2523 20.1562 16.6406C20.1562 17.029 20.471 17.3438 20.8594 17.3438Z" fill="#231F20"/>
<path d="M9.14062 19.6875C10.8234 19.6875 12.1875 18.3234 12.1875 16.6406C12.1875 14.9579 10.8234 13.5938 9.14062 13.5938C7.45788 13.5938 6.09375 14.9579 6.09375 16.6406C6.09375 18.3234 7.45788 19.6875 9.14062 19.6875Z" fill="white"/>
<path d="M9.14062 18.75C10.3056 18.75 11.25 17.8056 11.25 16.6406C11.25 15.4756 10.3056 14.5312 9.14062 14.5312C7.97565 14.5312 7.03125 15.4756 7.03125 16.6406C7.03125 17.8056 7.97565 18.75 9.14062 18.75Z" fill="#664E27"/>
<path d="M9.14062 17.3438C9.52895 17.3438 9.84375 17.029 9.84375 16.6406C9.84375 16.2523 9.52895 15.9375 9.14062 15.9375C8.7523 15.9375 8.4375 16.2523 8.4375 16.6406C8.4375 17.029 8.7523 17.3438 9.14062 17.3438Z" fill="#231F20"/>
<path d="M18.7969 22.5468C16.3594 24.2343 13.6406 24.2343 11.2031 22.5468C10.9219 22.3593 10.6406 22.6874 10.8281 23.0156C11.5781 24.2343 13.0781 25.3124 15 25.3124C16.9219 25.3124 18.4219 24.2343 19.1719 23.0156C19.3594 22.6874 19.0781 22.3593 18.7969 22.5468Z" fill="#664E27"/>
</g>
<defs>
<clipPath id="clip0_1_412">
<rect width="30" height="30" fill="white"/>
</clipPath>
</defs>
</svg>
