<svg width="23" height="24" viewBox="0 0 23 24" fill="none" xmlns="http://www.w3.org/2000/svg">
<g clip-path="url(#clip0_1_545)">
<path fill-rule="evenodd" clip-rule="evenodd" d="M14.983 20.7131C14.983 22.6318 13.1572 23.911 11.7305 23.911C10.7376 23.911 10.6599 23.1282 10.5072 21.5829C10.4394 20.905 10.3581 20.0812 10.1782 19.1141C9.70268 16.5532 8.0592 13.2811 6.48717 12.3026V4.72351C6.48224 1.84538 7.40624 0.886005 11.4102 0.886005H16.0586C18.7394 0.886005 19.3886 2.71905 19.6301 3.39829L19.6461 3.44434C19.7866 3.83576 20.0872 4.14404 20.4321 4.49326C20.8141 4.88468 21.2502 5.32855 21.5742 6.00267C21.9573 6.79959 21.9068 7.50825 21.8612 8.13888C21.8329 8.52135 21.807 8.8744 21.8822 9.20059C21.961 9.54597 22.0621 9.8082 22.1594 10.0589C22.3356 10.5143 22.4982 10.9364 22.4982 11.7589C22.4982 13.6777 21.5767 14.9543 19.6461 14.9543H14.4902C14.4902 14.9543 14.983 18.7943 14.983 20.7131ZM2.17026 13.6777C1.68014 13.6777 1.2101 13.4755 0.86353 13.1157C0.516964 12.7559 0.322266 12.2678 0.322266 11.7589V2.80476C0.322266 2.29587 0.516964 1.80783 0.86353 1.448C1.2101 1.08816 1.68014 0.886005 2.17026 0.886005C2.66038 0.886005 3.13042 1.08816 3.47699 1.448C3.82355 1.80783 4.01825 2.29587 4.01825 2.80476V11.7589C4.01825 12.2678 3.82355 12.7559 3.47699 13.1157C3.13042 13.4755 2.66038 13.6777 2.17026 13.6777Z" fill="white"/>
</g>
<defs>
<clipPath id="clip0_1_545">
<rect width="22.2129" height="23.0634" fill="white" transform="matrix(1 0 0 -1 0.30957 23.9366)"/>
</clipPath>
</defs>
</svg>
