<svg width="34" height="35" viewBox="0 0 34 35" fill="none" xmlns="http://www.w3.org/2000/svg">
<g clip-path="url(#clip0_1_547)">
<path d="M9.76923 28.2428L13.1191 31.7209C13.5946 32.2146 13.7369 32.9571 13.4795 33.6022C13.2222 34.2474 12.6159 34.6679 11.9434 34.6679H1.96757C1.04933 34.6679 0.304932 33.895 0.304932 32.9416V22.5838C0.304932 21.8855 0.710018 21.2561 1.33131 20.9889C1.95259 20.7216 2.66773 20.8694 3.14324 21.3631L6.24222 24.5808L12.3639 18.2247C13.0132 17.5506 14.0659 17.5506 14.7152 18.2247L15.8909 19.4454C16.5401 20.1195 16.5401 21.2126 15.8909 21.8867L9.76923 28.2428Z" fill="white"/>
<path d="M24.0936 6.56694L20.7437 3.08886C20.2682 2.59514 20.1259 1.85262 20.3833 1.20756C20.6406 0.562472 21.2468 0.141876 21.9194 0.141876H31.8952C32.8135 0.141876 33.5579 0.914775 33.5579 1.86818V12.226C33.5579 12.9242 33.1528 13.5537 32.5315 13.8209C31.9102 14.0881 31.1951 13.9404 30.7196 13.4467L27.6206 10.229L21.4989 16.5851C20.8496 17.2592 19.7968 17.2592 19.1476 16.5851L17.9719 15.3644C17.3225 14.6903 17.3225 13.5972 17.9719 12.923L24.0936 6.56694Z" fill="white"/>
</g>
<defs>
<clipPath id="clip0_1_547">
<rect width="33.3193" height="34.5951" fill="white" transform="translate(0.271729 0.107361)"/>
</clipPath>
</defs>
</svg>
