<svg width="30" height="30" viewBox="0 0 30 30" fill="none" xmlns="http://www.w3.org/2000/svg">
<g clip-path="url(#clip0_1_389)">
<path d="M27.141 18.75C27.141 18.75 28.5941 16.125 28.5941 12.1875C28.5941 7.03125 24.7972 0.9375 15.0003 0.9375C5.20345 0.9375 1.40658 7.03125 1.40658 12.1875C1.40658 16.125 2.8597 18.75 2.8597 18.75C1.1722 20.6719 0.140951 24.5625 1.59408 27.0938C2.20345 28.125 8.20345 31.7812 8.76595 25.2656H21.141C21.7503 31.7344 27.7503 28.125 28.3128 27.0938C29.8128 24.5625 28.7816 20.6719 27.141 18.75Z" fill="#231F20"/>
<path d="M15 2.8125C7.82812 2.8125 2.57812 6.5625 2.57812 11.25C2.57812 11.25 4.5 4.21875 15 4.21875C25.5 4.21875 26.9531 11.25 26.9531 11.25C26.9531 6.5625 22.1719 2.8125 15 2.8125Z" fill="#C28FEF"/>
<path d="M26.8594 19.6875C29.7656 19.6875 29.7656 15.4688 26.8594 15.4688V14.0625C26.8594 14.0625 10.4531 13.6406 6.70312 7.96875C7.64062 13.6875 3.09375 15.4688 3.09375 15.4688C0.1875 15.4688 0.1875 19.6875 3.09375 19.6875C3.09375 22.9688 6.51562 28.125 14.9531 28.125C23.4375 28.125 26.8594 22.9688 26.8594 19.6875Z" fill="#B47D56"/>
<path d="M20.8594 20.1562C22.5421 20.1562 23.9062 18.7921 23.9062 17.1094C23.9062 15.4266 22.5421 14.0625 20.8594 14.0625C19.1766 14.0625 17.8125 15.4266 17.8125 17.1094C17.8125 18.7921 19.1766 20.1562 20.8594 20.1562Z" fill="white"/>
<path d="M9.14062 20.1562C10.8234 20.1562 12.1875 18.7921 12.1875 17.1094C12.1875 15.4266 10.8234 14.0625 9.14062 14.0625C7.45788 14.0625 6.09375 15.4266 6.09375 17.1094C6.09375 18.7921 7.45788 20.1562 9.14062 20.1562Z" fill="white"/>
<path d="M20.8594 19.2188C22.0244 19.2188 22.9688 18.2744 22.9688 17.1094C22.9688 15.9444 22.0244 15 20.8594 15C19.6944 15 18.75 15.9444 18.75 17.1094C18.75 18.2744 19.6944 19.2188 20.8594 19.2188Z" fill="#664E27"/>
<path d="M20.8594 17.8125C21.2477 17.8125 21.5625 17.4977 21.5625 17.1094C21.5625 16.721 21.2477 16.4062 20.8594 16.4062C20.471 16.4062 20.1562 16.721 20.1562 17.1094C20.1562 17.4977 20.471 17.8125 20.8594 17.8125Z" fill="#231F20"/>
<path d="M9.14062 19.2188C10.3056 19.2188 11.25 18.2744 11.25 17.1094C11.25 15.9444 10.3056 15 9.14062 15C7.97565 15 7.03125 15.9444 7.03125 17.1094C7.03125 18.2744 7.97565 19.2188 9.14062 19.2188Z" fill="#664E27"/>
<path d="M9.14062 17.8125C9.52895 17.8125 9.84375 17.4977 9.84375 17.1094C9.84375 16.721 9.52895 16.4062 9.14062 16.4062C8.7523 16.4062 8.4375 16.721 8.4375 17.1094C8.4375 17.4977 8.7523 17.8125 9.14062 17.8125Z" fill="#231F20"/>
<path d="M18.7969 22.5468C16.3594 24.2343 13.6406 24.2343 11.2031 22.5468C10.9219 22.3593 10.6406 22.6874 10.8281 23.0156C11.5781 24.2343 13.0781 25.3124 15 25.3124C16.9219 25.3124 18.4219 24.2343 19.1719 23.0156C19.3594 22.6874 19.0781 22.3593 18.7969 22.5468Z" fill="#664E27"/>
</g>
<defs>
<clipPath id="clip0_1_389">
<rect width="30" height="30" fill="white"/>
</clipPath>
</defs>
</svg>
