<svg width="24" height="24" viewBox="0 0 24 24" fill="none" xmlns="http://www.w3.org/2000/svg">
<g clip-path="url(#clip0_1_540)">
<path fill-rule="evenodd" clip-rule="evenodd" d="M15.4674 4.09669C15.4674 2.17794 13.6416 0.898773 12.2149 0.898773C11.2219 0.898773 11.1443 1.68162 10.9916 3.22686C10.9238 3.90482 10.8425 4.7286 10.6626 5.69565C10.1871 8.25654 8.54357 11.5287 6.97155 12.5072V20.0863C6.96662 22.9644 7.89062 23.9238 11.8946 23.9238H16.5429C19.2237 23.9238 19.873 22.0907 20.1145 21.4115L20.1305 21.3654C20.2709 20.974 20.5716 20.6657 20.9165 20.3165C21.2984 19.9251 21.7346 19.4812 22.0586 18.8071C22.4417 18.0102 22.3912 17.3015 22.3456 16.6709C22.3173 16.2884 22.2914 15.9354 22.3666 15.6092C22.4454 15.2638 22.5464 15.0016 22.6438 14.7509C22.8199 14.2955 22.9826 13.8734 22.9826 13.0509C22.9826 11.1321 22.061 9.8555 20.1305 9.8555H14.9746C14.9746 9.8555 15.4674 6.01544 15.4674 4.09669ZM2.65463 11.1321C2.16452 11.1321 1.69447 11.3343 1.34791 11.6941C1.00134 12.0539 0.806641 12.542 0.806641 13.0509V22.005C0.806641 22.5139 1.00134 23.002 1.34791 23.3618C1.69447 23.7216 2.16452 23.9238 2.65463 23.9238C3.14475 23.9238 3.6148 23.7216 3.96136 23.3618C4.30793 23.002 4.50263 22.5139 4.50263 22.005V13.0509C4.50263 12.542 4.30793 12.0539 3.96136 11.6941C3.6148 11.3343 3.14475 11.1321 2.65463 11.1321Z" fill="white"/>
</g>
<defs>
<clipPath id="clip0_1_540">
<rect width="22.2129" height="23.0634" fill="white" transform="translate(0.793945 0.873169)"/>
</clipPath>
</defs>
</svg>
