<svg width="19" height="21" viewBox="0 0 19 21" fill="none" xmlns="http://www.w3.org/2000/svg">
<path fill-rule="evenodd" clip-rule="evenodd" d="M17.5924 19.975C17.4414 20.1535 17.2621 20.2951 17.0647 20.3917C16.8674 20.4884 16.6558 20.5381 16.4422 20.5381C16.2286 20.5381 16.0171 20.4884 15.8197 20.3917C15.6224 20.2951 15.4431 20.1535 15.292 19.975L12.4215 16.5829C11.2055 17.5127 9.78845 18.0084 8.34012 18.0105C4.14863 18.0105 0.750214 13.9952 0.750214 9.04144C0.750214 4.0877 4.14863 0.0723877 8.34012 0.0723877C12.5322 0.0723877 15.93 4.08766 15.93 9.04144C15.9278 10.7531 15.5084 12.4278 14.7218 13.8651L17.5924 17.2573C17.7435 17.4357 17.8633 17.6475 17.9451 17.8807C18.0268 18.1138 18.0689 18.3638 18.0689 18.6161C18.0689 18.8685 18.0268 19.1184 17.9451 19.3516C17.8633 19.5847 17.7435 19.7966 17.5924 19.975ZM8.34012 2.63512C7.26787 2.63512 6.2197 3.01086 5.32816 3.71482C4.43662 4.41878 3.74175 5.41935 3.33143 6.58999C2.9211 7.76064 2.81375 9.04878 3.02295 10.2915C3.23215 11.5343 3.7485 12.6758 4.50671 13.5717C5.26491 14.4677 6.23092 15.0778 7.28257 15.325C8.33422 15.5722 9.42428 15.4453 10.4149 14.9604C11.4055 14.4754 12.2522 13.6543 12.8479 12.6007C13.4436 11.5471 13.7615 10.3085 13.7615 9.0414C13.7615 8.20009 13.6213 7.36702 13.3488 6.58974C13.0764 5.81247 12.677 5.10622 12.1736 4.51133C11.6702 3.91643 11.0725 3.44454 10.4148 3.12259C9.75704 2.80064 9.05206 2.63494 8.34012 2.63496V2.63512Z" fill="white"/>
</svg>
